<svg width="45" height="45" viewBox="0 0 45 45" fill="none" xmlns="http://www.w3.org/2000/svg">
<path d="M11.25 25.3125C12.8033 25.3125 14.0625 24.0533 14.0625 22.5C14.0625 20.9467 12.8033 19.6875 11.25 19.6875C9.6967 19.6875 8.4375 20.9467 8.4375 22.5C8.4375 24.0533 9.6967 25.3125 11.25 25.3125Z" fill="#FBF2DA"/>
<path d="M22.5 25.3125C24.0533 25.3125 25.3125 24.0533 25.3125 22.5C25.3125 20.9467 24.0533 19.6875 22.5 19.6875C20.9467 19.6875 19.6875 20.9467 19.6875 22.5C19.6875 24.0533 20.9467 25.3125 22.5 25.3125Z" fill="#FBF2DA"/>
<path d="M33.75 25.3125C35.3033 25.3125 36.5625 24.0533 36.5625 22.5C36.5625 20.9467 35.3033 19.6875 33.75 19.6875C32.1967 19.6875 30.9375 20.9467 30.9375 22.5C30.9375 24.0533 32.1967 25.3125 33.75 25.3125Z" fill="#FBF2DA"/>
</svg>
